<?xml version="1.0" encoding="UTF-8" standalone="no"?>
<!DOCTYPE svg PUBLIC "-//W3C//DTD SVG 1.1//EN" "http://www.w3.org/Graphics/SVG/1.1/DTD/svg11.dtd">
<svg xmlns="http://www.w3.org/2000/svg" version="1.1" viewBox="0.00 0.00 471.00 424.00">
<path fill="#000" d="
  M 121.69 109.06
  Q 121.61 108.64 121.17 108.64
  Q 104.02 108.66 87.14 108.60
  Q 83.60 108.59 80.83 106.14
  Q 75.64 101.56 77.62 94.70
  C 79.38 88.59 84.59 87.27 90.73 87.26
  Q 109.60 87.23 130.25 87.29
  C 135.88 87.31 140.05 91.07 141.11 96.42
  Q 152.83 155.49 164.04 212.11
  C 164.74 215.69 167.64 219.06 171.09 220.02
  Q 173.55 220.70 176.88 220.71
  Q 228.72 220.76 280.68 220.71
  C 286.66 220.70 291.62 219.75 293.90 214.17
  Q 294.49 212.72 295.60 207.51
  Q 303.40 170.77 311.30 133.95
  Q 312.20 129.75 311.65 127.62
  C 310.52 123.25 306.88 119.68 302.32 119.47
  Q 297.27 119.24 292.03 119.42
  C 287.41 119.57 283.30 117.95 281.00 113.78
  C 277.29 107.06 281.82 98.38 289.66 98.13
  Q 301.82 97.72 307.44 98.51
  C 311.93 99.14 317.39 101.61 320.88 104.36
  Q 333.79 114.56 333.70 130.27
  Q 333.67 134.71 331.66 143.80
  Q 323.99 178.37 317.52 208.12
  Q 314.56 221.71 312.50 225.27
  Q 305.63 237.22 292.98 240.78
  Q 288.56 242.02 282.50 242.01
  Q 225.53 241.87 175.25 241.92
  C 171.52 241.93 167.52 241.59 163.99 240.23
  Q 146.60 233.51 142.94 215.27
  Q 132.38 162.63 121.69 109.06
  Z"
/>
<path fill="#000" d="
  M 237.05 162.67
  Q 237.13 173.67 237.02 183.92
  Q 237.00 186.31 235.29 189.06
  C 229.75 198.00 215.65 193.92 215.70 183.39
  Q 215.76 172.43 215.75 162.53
  Q 215.75 161.95 215.18 161.94
  Q 206.06 161.83 195.40 161.97
  Q 187.82 162.07 184.90 156.19
  Q 182.66 151.67 184.71 146.84
  C 186.82 141.88 191.47 140.55 196.74 140.65
  Q 206.71 140.84 215.50 140.66
  A 0.20 0.20 0.0 0 0 215.70 140.47
  Q 215.84 130.72 215.67 119.96
  C 215.53 111.41 224.07 106.00 231.36 109.89
  Q 237.16 112.98 237.15 121.02
  Q 237.13 138.28 237.20 140.31
  Q 237.22 140.74 237.65 140.73
  Q 248.66 140.72 257.79 140.73
  Q 265.79 140.74 268.54 148.15
  Q 270.05 152.24 267.56 156.57
  Q 264.50 161.88 258.37 161.90
  Q 247.99 161.94 237.81 161.90
  Q 237.04 161.89 237.05 162.67
  Z"
/>
<path fill="#000" d="
  M 215.65 289.99
  A 31.98 31.98 0.0 0 1 183.67 321.97
  A 31.98 31.98 0.0 0 1 151.69 289.99
  A 31.98 31.98 0.0 0 1 183.67 258.01
  A 31.98 31.98 0.0 0 1 215.65 289.99
  Z
  M 194.31 289.99
  A 10.65 10.65 0.0 0 0 183.66 279.34
  A 10.65 10.65 0.0 0 0 173.01 289.99
  A 10.65 10.65 0.0 0 0 183.66 300.64
  A 10.65 10.65 0.0 0 0 194.31 289.99
  Z"
/>
<path fill="#000" d="
  M 311.64 289.99
  A 31.98 31.98 0.0 0 1 279.66 321.97
  A 31.98 31.98 0.0 0 1 247.68 289.99
  A 31.98 31.98 0.0 0 1 279.66 258.01
  A 31.98 31.98 0.0 0 1 311.64 289.99
  Z
  M 290.31 289.99
  A 10.64 10.64 0.0 0 0 279.67 279.35
  A 10.64 10.64 0.0 0 0 269.03 289.99
  A 10.64 10.64 0.0 0 0 279.67 300.63
  A 10.64 10.64 0.0 0 0 290.31 289.99
  Z"
/>
</svg>
